<svg width="219" height="253" viewBox="0 0 219 253" fill="none" xmlns="http://www.w3.org/2000/svg">
<path d="M5 189V5L147 5.06003V45H187L188 228H44V189H5Z" fill="black"/>
<path d="M212 65L147 5L5 189L58.5 248H65H69H213L212 65Z" fill="black"/>
<path d="M136.5 15H15V177.5H55.5V136.5H96V96H55.5V55.5H136.5V15Z" fill="#E63946"/>
<path d="M136.5 15H15V177.5" stroke="#F1FAEE" stroke-width="5"/>
<path d="M177.175 55.5H136.5V177.5H55.5V218H177.175V55.5Z" fill="#E63946"/>
<path d="M177 55.5V218H55.5" stroke="#F1FAEE" stroke-width="5"/>
<path d="M148.696 3.16299L147.977 2.5H147H5H2.5V5V189V189.965L3.14802 190.679L56.648 249.679L57.3922 250.5H58.5H213H215.514L215.5 247.986L214.5 64.9863L214.494 63.8999L213.696 63.163L148.696 3.16299Z" stroke="#F1FAEE" stroke-width="5"/>
<path d="M176.5 217.5L215.5 250.5" stroke="#F1FAEE" stroke-width="5"/>
</svg>
